<mxfile host="65bd71144e">
    <diagram id="xWiQzCHYZb6G1rvWM26q" name="Page-1">
        <mxGraphModel dx="695" dy="458" grid="1" gridSize="10" guides="1" tooltips="1" connect="1" arrows="1" fold="1" page="1" pageScale="1" pageWidth="850" pageHeight="1100" math="0" shadow="0">
            <root>
                <mxCell id="0"/>
                <mxCell id="1" parent="0"/>
                <mxCell id="2" value="Horizontal Tree Layout" style="swimlane;startSize=20;horizontal=0;childLayout=treeLayout;horizontalTree=1;resizable=1;containerType=tree;fontSize=12;movable=1;rotatable=1;deletable=1;editable=1;connectable=1;" vertex="1" parent="1">
                    <mxGeometry x="40" y="40" width="780" height="520" as="geometry"/>
                </mxCell>
                <UserObject label="MainSort" treeRoot="1" id="8">
                    <mxCell style="whiteSpace=wrap;html=1;align=center;treeFolding=1;treeMoving=1;newEdgeStyle={&quot;edgeStyle&quot;:&quot;elbowEdgeStyle&quot;,&quot;startArrow&quot;:&quot;none&quot;,&quot;endArrow&quot;:&quot;none&quot;};" vertex="1" parent="2">
                        <mxGeometry x="40" y="10" width="120" height="60" as="geometry"/>
                    </mxCell>
                </UserObject>
                <mxCell id="9" value="" style="shape=singleArrow;direction=south;whiteSpace=wrap;html=1;arrowWidth=0.26666666666666666;arrowSize=0.04888888888888889;" vertex="1" parent="2">
                    <mxGeometry x="70" y="70" width="60" height="450" as="geometry"/>
                </mxCell>
                <UserObject label="RandomArrayGenerator" treeRoot="1" id="10">
                    <mxCell style="whiteSpace=wrap;html=1;align=center;treeFolding=1;treeMoving=1;newEdgeStyle={&quot;edgeStyle&quot;:&quot;elbowEdgeStyle&quot;,&quot;startArrow&quot;:&quot;none&quot;,&quot;endArrow&quot;:&quot;none&quot;};" vertex="1" parent="2">
                        <mxGeometry x="180" y="10" width="120" height="60" as="geometry"/>
                    </mxCell>
                </UserObject>
                <mxCell id="11" value="" style="shape=singleArrow;direction=south;whiteSpace=wrap;html=1;arrowWidth=0.26666666666666666;arrowSize=0.04888888888888889;" vertex="1" parent="2">
                    <mxGeometry x="210" y="70" width="60" height="450" as="geometry"/>
                </mxCell>
                <UserObject label="Sort" treeRoot="1" id="12">
                    <mxCell style="whiteSpace=wrap;html=1;align=center;treeFolding=1;treeMoving=1;newEdgeStyle={&quot;edgeStyle&quot;:&quot;elbowEdgeStyle&quot;,&quot;startArrow&quot;:&quot;none&quot;,&quot;endArrow&quot;:&quot;none&quot;};" vertex="1" parent="2">
                        <mxGeometry x="325" y="10" width="120" height="60" as="geometry"/>
                    </mxCell>
                </UserObject>
                <mxCell id="13" value="" style="shape=singleArrow;direction=south;whiteSpace=wrap;html=1;arrowWidth=0.26666666666666666;arrowSize=0.04888888888888889;" vertex="1" parent="2">
                    <mxGeometry x="355" y="70" width="60" height="450" as="geometry"/>
                </mxCell>
                <UserObject label="FileManager" treeRoot="1" id="14">
                    <mxCell style="whiteSpace=wrap;html=1;align=center;treeFolding=1;treeMoving=1;newEdgeStyle={&quot;edgeStyle&quot;:&quot;elbowEdgeStyle&quot;,&quot;startArrow&quot;:&quot;none&quot;,&quot;endArrow&quot;:&quot;none&quot;};" vertex="1" parent="2">
                        <mxGeometry x="470" y="10" width="120" height="60" as="geometry"/>
                    </mxCell>
                </UserObject>
                <mxCell id="15" value="" style="shape=singleArrow;direction=south;whiteSpace=wrap;html=1;arrowWidth=0.26666666666666666;arrowSize=0.04888888888888889;" vertex="1" parent="2">
                    <mxGeometry x="500" y="70" width="60" height="450" as="geometry"/>
                </mxCell>
                <mxCell id="16" value="" style="rounded=1;whiteSpace=wrap;html=1;rotation=-90;fillColor=#f5f5f5;fontColor=#333333;strokeColor=#666666;" vertex="1" parent="2">
                    <mxGeometry x="77.5" y="97.5" width="45" height="30" as="geometry"/>
                </mxCell>
                <mxCell id="17" value="" style="shape=singleArrow;whiteSpace=wrap;html=1;arrowWidth=0.26746031746031634;arrowSize=0.2178571428571433;fillColor=#60a917;fontColor=#ffffff;strokeColor=#2D7600;" vertex="1" parent="2">
                    <mxGeometry x="110" y="97.5" width="120" height="60" as="geometry"/>
                </mxCell>
                <mxCell id="18" value="Busca generar los archivos txt" style="text;align=center;fontStyle=1;verticalAlign=middle;spacingLeft=3;spacingRight=3;strokeColor=none;rotatable=0;points=[[0,0.5],[1,0.5]];portConstraint=eastwest;fontSize=8;" vertex="1" parent="2">
                    <mxGeometry x="140" y="90" width="80" height="26" as="geometry"/>
                </mxCell>
                <mxCell id="21" value="" style="rounded=1;whiteSpace=wrap;html=1;rotation=-90;fillColor=#f5f5f5;fontColor=#333333;strokeColor=#666666;" vertex="1" parent="2">
                    <mxGeometry x="507.5" y="150" width="45" height="30" as="geometry"/>
                </mxCell>
                <mxCell id="23" value="" style="shape=singleArrow;direction=west;whiteSpace=wrap;html=1;fontSize=8;arrowWidth=0.25714285714285695;arrowSize=0.07421602787456422;fillColor=#a20025;fontColor=#ffffff;strokeColor=#6F0000;" vertex="1" parent="2">
                    <mxGeometry x="110" y="170" width="410" height="40" as="geometry"/>
                </mxCell>
                <mxCell id="24" value="Genera numeros aleatorios" style="text;align=center;fontStyle=1;verticalAlign=middle;spacingLeft=3;spacingRight=3;strokeColor=none;rotatable=0;points=[[0,0.5],[1,0.5]];portConstraint=eastwest;fontSize=8;" vertex="1" parent="2">
                    <mxGeometry x="400" y="160" width="80" height="26" as="geometry"/>
                </mxCell>
                <mxCell id="25" value="" style="shape=singleArrow;whiteSpace=wrap;html=1;arrowWidth=0.26206896551724224;arrowSize=0.05098522167487653;fillColor=#60a917;fontColor=#ffffff;strokeColor=#2D7600;" vertex="1" parent="2">
                    <mxGeometry x="110" y="210" width="410" height="60" as="geometry"/>
                </mxCell>
                <mxCell id="26" value="" style="rounded=1;whiteSpace=wrap;html=1;rotation=-90;fillColor=#f5f5f5;fontColor=#333333;strokeColor=#666666;" vertex="1" parent="2">
                    <mxGeometry x="77.5" y="200" width="45" height="30" as="geometry"/>
                </mxCell>
                <mxCell id="27" value="lee los archivosÂ " style="text;align=center;fontStyle=1;verticalAlign=middle;spacingLeft=3;spacingRight=3;strokeColor=none;rotatable=0;points=[[0,0.5],[1,0.5]];portConstraint=eastwest;fontSize=8;" vertex="1" parent="2">
                    <mxGeometry x="127.5" y="210" width="85" height="26" as="geometry"/>
                </mxCell>
                <mxCell id="28" value="" style="rounded=1;whiteSpace=wrap;html=1;rotation=-90;fillColor=#f5f5f5;fontColor=#333333;strokeColor=#666666;" vertex="1" parent="2">
                    <mxGeometry x="507.5" y="260" width="45" height="30" as="geometry"/>
                </mxCell>
                <mxCell id="29" value="" style="shape=singleArrow;direction=west;whiteSpace=wrap;html=1;fontSize=8;arrowWidth=0.29655172413792835;arrowSize=0.10715197956577262;fillColor=#a20025;fontColor=#ffffff;strokeColor=#6F0000;" vertex="1" parent="2">
                    <mxGeometry x="110" y="280" width="420" height="40" as="geometry"/>
                </mxCell>
                <mxCell id="30" value="Regresa los archivos ya leidos" style="text;align=center;fontStyle=1;verticalAlign=middle;spacingLeft=3;spacingRight=3;strokeColor=none;rotatable=0;points=[[0,0.5],[1,0.5]];portConstraint=eastwest;fontSize=8;" vertex="1" parent="2">
                    <mxGeometry x="390" y="270" width="80" height="26" as="geometry"/>
                </mxCell>
                <mxCell id="31" value="" style="rounded=1;whiteSpace=wrap;html=1;rotation=-90;fillColor=#f5f5f5;fontColor=#333333;strokeColor=#666666;" vertex="1" parent="2">
                    <mxGeometry x="77.5" y="310" width="45" height="30" as="geometry"/>
                </mxCell>
                <mxCell id="32" value="" style="shape=singleArrow;whiteSpace=wrap;html=1;arrowWidth=0.26206896551724224;arrowSize=0.05098522167487653;fillColor=#60a917;fontColor=#ffffff;strokeColor=#2D7600;" vertex="1" parent="2">
                    <mxGeometry x="110" y="322.5" width="270" height="60" as="geometry"/>
                </mxCell>
                <mxCell id="33" value="implementa cada uno de los sorting para cada uno de los archivos" style="text;align=center;fontStyle=1;verticalAlign=middle;spacingLeft=3;spacingRight=3;strokeColor=none;rotatable=0;points=[[0,0.5],[1,0.5]];portConstraint=eastwest;fontSize=8;" vertex="1" parent="2">
                    <mxGeometry x="205" y="322.5" width="80" height="26" as="geometry"/>
                </mxCell>
                <mxCell id="38" value="" style="rounded=1;whiteSpace=wrap;html=1;rotation=-90;fillColor=#f5f5f5;fontColor=#333333;strokeColor=#666666;" vertex="1" parent="2">
                    <mxGeometry x="358.75" y="360" width="45" height="30" as="geometry"/>
                </mxCell>
                <mxCell id="39" value="" style="shape=singleArrow;direction=west;whiteSpace=wrap;html=1;fontSize=8;arrowWidth=0.29655172413792835;arrowSize=0.10715197956577262;fillColor=#a20025;fontColor=#ffffff;strokeColor=#6F0000;" vertex="1" parent="2">
                    <mxGeometry x="110" y="380" width="261.25" height="40" as="geometry"/>
                </mxCell>
                <mxCell id="40" value="devuelve el resultado correcto del sorting" style="text;align=center;fontStyle=1;verticalAlign=middle;spacingLeft=3;spacingRight=3;strokeColor=none;rotatable=0;points=[[0,0.5],[1,0.5]];portConstraint=eastwest;fontSize=8;" vertex="1" parent="2">
                    <mxGeometry x="240" y="370" width="80" height="26" as="geometry"/>
                </mxCell>
                <mxCell id="41" value="" style="shape=singleArrow;whiteSpace=wrap;html=1;arrowWidth=0.26746031746031634;arrowSize=0.2178571428571433;fillColor=#60a917;fontColor=#ffffff;strokeColor=#2D7600;" vertex="1" parent="2">
                    <mxGeometry x="250" y="100" width="270" height="60" as="geometry"/>
                </mxCell>
                <mxCell id="42" value="" style="rounded=1;whiteSpace=wrap;html=1;rotation=-90;fillColor=#f5f5f5;fontColor=#333333;strokeColor=#666666;" vertex="1" parent="2">
                    <mxGeometry x="217.5" y="120" width="45" height="30" as="geometry"/>
                </mxCell>
                <mxCell id="43" value="Genera archivos con ayuda de filemanager" style="text;align=center;fontStyle=1;verticalAlign=middle;spacingLeft=3;spacingRight=3;strokeColor=none;rotatable=0;points=[[0,0.5],[1,0.5]];portConstraint=eastwest;fontSize=8;" vertex="1" parent="2">
                    <mxGeometry x="320" y="100" width="80" height="26" as="geometry"/>
                </mxCell>
            </root>
        </mxGraphModel>
    </diagram>
</mxfile>